<mxfile host="app.diagrams.net" agent="Mozilla/5.0 (Macintosh; Intel Mac OS X 10_15_7) AppleWebKit/537.36 (KHTML, like Gecko) Chrome/133.0.0.0 Safari/537.36" version="26.1.0">
  <diagram id="DHt9ZMiTIaIE02qvRX9q" name="第 1 页">
    <mxGraphModel dx="1434" dy="1954" grid="1" gridSize="10" guides="1" tooltips="1" connect="1" arrows="1" fold="1" page="1" pageScale="1" pageWidth="827" pageHeight="1169" math="0" shadow="0">
      <root>
        <mxCell id="0" />
        <mxCell id="1" parent="0" />
        <mxCell id="GP_2m2FubImY15Z5l0kA-208" value="" style="rounded=0;whiteSpace=wrap;html=1;strokeWidth=2;fillColor=none;" parent="1" vertex="1">
          <mxGeometry x="1090" y="-481.5" width="260" height="240" as="geometry" />
        </mxCell>
        <mxCell id="2" value="" style="rounded=0;whiteSpace=wrap;html=1;strokeWidth=2;fontFamily=宋体;fontSize=24;" parent="1" vertex="1">
          <mxGeometry x="130" y="-761.5" width="770" height="430" as="geometry" />
        </mxCell>
        <mxCell id="6" value="接口" style="rounded=0;whiteSpace=wrap;html=1;strokeWidth=2;fontFamily=宋体;fontSize=24;" parent="1" vertex="1">
          <mxGeometry x="155" y="-741.5" width="720" height="50" as="geometry" />
        </mxCell>
        <mxCell id="GP_2m2FubImY15Z5l0kA-69" value="中断处理" style="rounded=0;whiteSpace=wrap;html=1;strokeWidth=2;fontFamily=宋体;fontSize=24;" parent="1" vertex="1">
          <mxGeometry x="155" y="-412.5" width="345" height="60" as="geometry" />
        </mxCell>
        <mxCell id="GP_2m2FubImY15Z5l0kA-73" value="" style="group" parent="1" vertex="1" connectable="0">
          <mxGeometry x="155" y="-644.5" width="345" height="180" as="geometry" />
        </mxCell>
        <mxCell id="mDuoX1Sw4fGfqt7fVJSs-150" value="" style="rounded=0;whiteSpace=wrap;html=1;strokeWidth=2;" parent="GP_2m2FubImY15Z5l0kA-73" vertex="1">
          <mxGeometry width="345" height="180" as="geometry" />
        </mxCell>
        <mxCell id="mDuoX1Sw4fGfqt7fVJSs-152" value="就绪队列" style="rounded=0;whiteSpace=wrap;html=1;strokeWidth=2;fontFamily=宋体;fontSize=24;" parent="GP_2m2FubImY15Z5l0kA-73" vertex="1">
          <mxGeometry x="22" y="20" width="140" height="60" as="geometry" />
        </mxCell>
        <mxCell id="mDuoX1Sw4fGfqt7fVJSs-153" value="外部中断&lt;div&gt;能力槽&lt;/div&gt;" style="rounded=0;whiteSpace=wrap;html=1;strokeWidth=2;fontFamily=宋体;fontSize=24;" parent="GP_2m2FubImY15Z5l0kA-73" vertex="1">
          <mxGeometry x="22" y="100" width="140" height="60" as="geometry" />
        </mxCell>
        <mxCell id="mDuoX1Sw4fGfqt7fVJSs-154" value="发送能力槽" style="rounded=0;whiteSpace=wrap;html=1;strokeWidth=2;fontFamily=宋体;fontSize=24;" parent="GP_2m2FubImY15Z5l0kA-73" vertex="1">
          <mxGeometry x="189" y="100" width="140" height="60" as="geometry" />
        </mxCell>
        <mxCell id="mDuoX1Sw4fGfqt7fVJSs-155" value="接收能力槽" style="rounded=0;whiteSpace=wrap;html=1;strokeWidth=2;fontFamily=宋体;fontSize=24;" parent="GP_2m2FubImY15Z5l0kA-73" vertex="1">
          <mxGeometry x="189" y="20.870000000000005" width="140" height="58.25" as="geometry" />
        </mxCell>
        <mxCell id="GP_2m2FubImY15Z5l0kA-53" value="" style="endArrow=classic;html=1;rounded=0;entryX=0.5;entryY=1;entryDx=0;entryDy=0;exitX=0.5;exitY=0;exitDx=0;exitDy=0;strokeWidth=2;" parent="GP_2m2FubImY15Z5l0kA-73" source="mDuoX1Sw4fGfqt7fVJSs-153" target="mDuoX1Sw4fGfqt7fVJSs-152" edge="1">
          <mxGeometry width="50" height="50" relative="1" as="geometry">
            <mxPoint x="52" y="130" as="sourcePoint" />
            <mxPoint x="102" y="80" as="targetPoint" />
          </mxGeometry>
        </mxCell>
        <mxCell id="GP_2m2FubImY15Z5l0kA-54" value="" style="endArrow=classic;html=1;rounded=0;entryX=1;entryY=0.5;entryDx=0;entryDy=0;exitX=0;exitY=0.5;exitDx=0;exitDy=0;strokeWidth=2;" parent="GP_2m2FubImY15Z5l0kA-73" source="mDuoX1Sw4fGfqt7fVJSs-155" target="mDuoX1Sw4fGfqt7fVJSs-152" edge="1">
          <mxGeometry width="50" height="50" relative="1" as="geometry">
            <mxPoint x="-158" y="90" as="sourcePoint" />
            <mxPoint x="-108" y="40" as="targetPoint" />
          </mxGeometry>
        </mxCell>
        <mxCell id="GP_2m2FubImY15Z5l0kA-74" value="" style="group" parent="1" vertex="1" connectable="0">
          <mxGeometry x="530" y="-644.5" width="345" height="180" as="geometry" />
        </mxCell>
        <mxCell id="GP_2m2FubImY15Z5l0kA-75" value="" style="rounded=0;whiteSpace=wrap;html=1;strokeWidth=2;" parent="GP_2m2FubImY15Z5l0kA-74" vertex="1">
          <mxGeometry width="345" height="180" as="geometry" />
        </mxCell>
        <mxCell id="GP_2m2FubImY15Z5l0kA-76" value="就绪队列" style="rounded=0;whiteSpace=wrap;html=1;strokeWidth=2;fontFamily=宋体;fontSize=24;" parent="GP_2m2FubImY15Z5l0kA-74" vertex="1">
          <mxGeometry x="22" y="20" width="140" height="60" as="geometry" />
        </mxCell>
        <mxCell id="GP_2m2FubImY15Z5l0kA-77" value="外部中断&lt;div&gt;能力槽&lt;/div&gt;" style="rounded=0;whiteSpace=wrap;html=1;strokeWidth=2;fontFamily=宋体;fontSize=24;" parent="GP_2m2FubImY15Z5l0kA-74" vertex="1">
          <mxGeometry x="22" y="100" width="140" height="60" as="geometry" />
        </mxCell>
        <mxCell id="GP_2m2FubImY15Z5l0kA-78" value="发送能力槽" style="rounded=0;whiteSpace=wrap;html=1;strokeWidth=2;fontFamily=宋体;fontSize=24;" parent="GP_2m2FubImY15Z5l0kA-74" vertex="1">
          <mxGeometry x="189" y="100" width="140" height="60" as="geometry" />
        </mxCell>
        <mxCell id="GP_2m2FubImY15Z5l0kA-79" value="接收能力槽" style="rounded=0;whiteSpace=wrap;html=1;strokeWidth=2;fontFamily=宋体;fontSize=24;" parent="GP_2m2FubImY15Z5l0kA-74" vertex="1">
          <mxGeometry x="189" y="20.870000000000005" width="140" height="58.25" as="geometry" />
        </mxCell>
        <mxCell id="GP_2m2FubImY15Z5l0kA-80" value="" style="endArrow=classic;html=1;rounded=0;entryX=0.5;entryY=1;entryDx=0;entryDy=0;exitX=0.5;exitY=0;exitDx=0;exitDy=0;strokeWidth=2;" parent="GP_2m2FubImY15Z5l0kA-74" source="GP_2m2FubImY15Z5l0kA-77" target="GP_2m2FubImY15Z5l0kA-76" edge="1">
          <mxGeometry width="50" height="50" relative="1" as="geometry">
            <mxPoint x="52" y="130" as="sourcePoint" />
            <mxPoint x="102" y="80" as="targetPoint" />
          </mxGeometry>
        </mxCell>
        <mxCell id="GP_2m2FubImY15Z5l0kA-81" value="" style="endArrow=classic;html=1;rounded=0;entryX=1;entryY=0.5;entryDx=0;entryDy=0;exitX=0;exitY=0.5;exitDx=0;exitDy=0;strokeWidth=2;" parent="GP_2m2FubImY15Z5l0kA-74" source="GP_2m2FubImY15Z5l0kA-79" target="GP_2m2FubImY15Z5l0kA-76" edge="1">
          <mxGeometry width="50" height="50" relative="1" as="geometry">
            <mxPoint x="-158" y="90" as="sourcePoint" />
            <mxPoint x="-108" y="40" as="targetPoint" />
          </mxGeometry>
        </mxCell>
        <mxCell id="GP_2m2FubImY15Z5l0kA-82" value="任务通信" style="rounded=0;whiteSpace=wrap;html=1;strokeWidth=2;fontFamily=宋体;fontSize=24;" parent="1" vertex="1">
          <mxGeometry x="530" y="-412.5" width="345" height="60" as="geometry" />
        </mxCell>
        <mxCell id="GP_2m2FubImY15Z5l0kA-84" value="" style="group;fillColor=none;" parent="1" vertex="1" connectable="0">
          <mxGeometry x="300" y="-350.5" width="26" height="43" as="geometry" />
        </mxCell>
        <mxCell id="GP_2m2FubImY15Z5l0kA-85" value="" style="endArrow=open;html=1;strokeWidth=2;fontFamily=宋体;fontSize=24;entryX=0.245;entryY=-0.005;entryDx=0;entryDy=0;entryPerimeter=0;rounded=0;endFill=0;strokeColor=#666666;" parent="GP_2m2FubImY15Z5l0kA-84" edge="1">
          <mxGeometry width="50" height="50" relative="1" as="geometry">
            <mxPoint y="43" as="sourcePoint" />
            <mxPoint as="targetPoint" />
          </mxGeometry>
        </mxCell>
        <mxCell id="GP_2m2FubImY15Z5l0kA-86" value="" style="endArrow=open;html=1;strokeWidth=2;fontFamily=宋体;fontSize=24;entryX=0.224;entryY=-0.006;entryDx=0;entryDy=0;entryPerimeter=0;rounded=0;endFill=0;strokeColor=#666666;" parent="GP_2m2FubImY15Z5l0kA-84" edge="1">
          <mxGeometry width="50" height="50" relative="1" as="geometry">
            <mxPoint x="13" y="43" as="sourcePoint" />
            <mxPoint x="13" as="targetPoint" />
          </mxGeometry>
        </mxCell>
        <mxCell id="GP_2m2FubImY15Z5l0kA-87" value="" style="endArrow=open;html=1;strokeWidth=2;fontFamily=宋体;fontSize=24;entryX=0.203;entryY=-0.005;entryDx=0;entryDy=0;exitX=0.625;exitY=1.001;exitDx=0;exitDy=0;entryPerimeter=0;exitPerimeter=0;rounded=0;endFill=0;strokeColor=#666666;" parent="GP_2m2FubImY15Z5l0kA-84" edge="1">
          <mxGeometry width="50" height="50" relative="1" as="geometry">
            <mxPoint x="26" y="43" as="sourcePoint" />
            <mxPoint x="26" as="targetPoint" />
          </mxGeometry>
        </mxCell>
        <mxCell id="GP_2m2FubImY15Z5l0kA-88" value="" style="endArrow=open;html=1;rounded=0;entryX=0.5;entryY=1;entryDx=0;entryDy=0;exitX=0.5;exitY=0;exitDx=0;exitDy=0;strokeWidth=2;edgeStyle=orthogonalEdgeStyle;endFill=0;strokeColor=#666666;" parent="1" source="GP_2m2FubImY15Z5l0kA-69" target="mDuoX1Sw4fGfqt7fVJSs-153" edge="1">
          <mxGeometry width="50" height="50" relative="1" as="geometry">
            <mxPoint x="500" y="-471.5" as="sourcePoint" />
            <mxPoint x="550" y="-521.5" as="targetPoint" />
            <Array as="points">
              <mxPoint x="328" y="-431.5" />
              <mxPoint x="247" y="-431.5" />
            </Array>
          </mxGeometry>
        </mxCell>
        <mxCell id="GP_2m2FubImY15Z5l0kA-89" value="" style="endArrow=open;html=1;rounded=0;entryX=0.5;entryY=1;entryDx=0;entryDy=0;exitX=0.5;exitY=0;exitDx=0;exitDy=0;strokeWidth=2;edgeStyle=orthogonalEdgeStyle;endFill=0;strokeColor=#666666;" parent="1" source="GP_2m2FubImY15Z5l0kA-69" target="GP_2m2FubImY15Z5l0kA-77" edge="1">
          <mxGeometry width="50" height="50" relative="1" as="geometry">
            <mxPoint x="338" y="-402.5" as="sourcePoint" />
            <mxPoint x="257" y="-486.5" as="targetPoint" />
            <Array as="points">
              <mxPoint x="327" y="-431.5" />
              <mxPoint x="622" y="-431.5" />
            </Array>
          </mxGeometry>
        </mxCell>
        <mxCell id="GP_2m2FubImY15Z5l0kA-90" value="" style="endArrow=open;html=1;rounded=0;entryX=0.5;entryY=1;entryDx=0;entryDy=0;exitX=0.5;exitY=0;exitDx=0;exitDy=0;strokeWidth=2;edgeStyle=orthogonalEdgeStyle;endFill=0;strokeColor=#666666;" parent="1" source="GP_2m2FubImY15Z5l0kA-82" target="mDuoX1Sw4fGfqt7fVJSs-154" edge="1">
          <mxGeometry width="50" height="50" relative="1" as="geometry">
            <mxPoint x="338" y="-402.5" as="sourcePoint" />
            <mxPoint x="257" y="-486.5" as="targetPoint" />
            <Array as="points">
              <mxPoint x="703" y="-451.5" />
              <mxPoint x="414" y="-451.5" />
            </Array>
          </mxGeometry>
        </mxCell>
        <mxCell id="GP_2m2FubImY15Z5l0kA-91" value="" style="endArrow=open;html=1;rounded=0;entryX=1;entryY=0.5;entryDx=0;entryDy=0;exitX=0.5;exitY=0;exitDx=0;exitDy=0;strokeWidth=2;edgeStyle=orthogonalEdgeStyle;endFill=0;strokeColor=#666666;" parent="1" source="GP_2m2FubImY15Z5l0kA-82" target="mDuoX1Sw4fGfqt7fVJSs-155" edge="1">
          <mxGeometry width="50" height="50" relative="1" as="geometry">
            <mxPoint x="712" y="-402.5" as="sourcePoint" />
            <mxPoint x="424" y="-486.5" as="targetPoint" />
            <Array as="points">
              <mxPoint x="703" y="-451.5" />
              <mxPoint x="520" y="-451.5" />
              <mxPoint x="520" y="-594.5" />
            </Array>
          </mxGeometry>
        </mxCell>
        <mxCell id="GP_2m2FubImY15Z5l0kA-93" value="" style="endArrow=open;html=1;rounded=0;exitX=0.5;exitY=0;exitDx=0;exitDy=0;strokeWidth=2;edgeStyle=orthogonalEdgeStyle;endFill=0;entryX=0.5;entryY=1;entryDx=0;entryDy=0;strokeColor=#666666;" parent="1" source="GP_2m2FubImY15Z5l0kA-82" target="GP_2m2FubImY15Z5l0kA-78" edge="1">
          <mxGeometry width="50" height="50" relative="1" as="geometry">
            <mxPoint x="713" y="-402.5" as="sourcePoint" />
            <mxPoint x="789" y="-491.5" as="targetPoint" />
            <Array as="points">
              <mxPoint x="703" y="-451.5" />
              <mxPoint x="789" y="-451.5" />
            </Array>
          </mxGeometry>
        </mxCell>
        <mxCell id="GP_2m2FubImY15Z5l0kA-94" value="" style="endArrow=open;html=1;rounded=0;exitX=0.5;exitY=0.021;exitDx=0;exitDy=0;strokeWidth=2;edgeStyle=orthogonalEdgeStyle;endFill=0;entryX=1;entryY=0.5;entryDx=0;entryDy=0;startArrow=open;startFill=0;strokeColor=#666666;exitPerimeter=0;" parent="1" source="GP_2m2FubImY15Z5l0kA-82" target="GP_2m2FubImY15Z5l0kA-79" edge="1">
          <mxGeometry width="50" height="50" relative="1" as="geometry">
            <mxPoint x="712" y="-402.5" as="sourcePoint" />
            <mxPoint x="799" y="-486.5" as="targetPoint" />
            <Array as="points">
              <mxPoint x="702" y="-451" />
              <mxPoint x="880" y="-451" />
              <mxPoint x="880" y="-594" />
            </Array>
          </mxGeometry>
        </mxCell>
        <mxCell id="GP_2m2FubImY15Z5l0kA-101" value="" style="group" parent="1" vertex="1" connectable="0">
          <mxGeometry x="310" y="-690.5" width="26" height="45" as="geometry" />
        </mxCell>
        <mxCell id="GP_2m2FubImY15Z5l0kA-102" value="" style="endArrow=classic;startArrow=classic;html=1;strokeWidth=2;fontFamily=Times New Roman;fontSize=24;entryX=0.181;entryY=1.006;entryDx=0;entryDy=0;entryPerimeter=0;rounded=0;" parent="GP_2m2FubImY15Z5l0kA-101" edge="1">
          <mxGeometry width="50" height="50" relative="1" as="geometry">
            <mxPoint y="45" as="sourcePoint" />
            <mxPoint as="targetPoint" />
          </mxGeometry>
        </mxCell>
        <mxCell id="GP_2m2FubImY15Z5l0kA-103" value="" style="endArrow=classic;startArrow=classic;html=1;strokeWidth=2;fontFamily=Times New Roman;fontSize=24;exitX=0.597;exitY=-0.004;exitDx=0;exitDy=0;exitPerimeter=0;entryX=0.174;entryY=1.004;entryDx=0;entryDy=0;entryPerimeter=0;rounded=0;" parent="GP_2m2FubImY15Z5l0kA-101" edge="1">
          <mxGeometry width="50" height="50" relative="1" as="geometry">
            <mxPoint x="13" y="45" as="sourcePoint" />
            <mxPoint x="13" as="targetPoint" />
          </mxGeometry>
        </mxCell>
        <mxCell id="GP_2m2FubImY15Z5l0kA-104" value="" style="endArrow=classic;startArrow=classic;html=1;strokeWidth=2;fontFamily=Times New Roman;fontSize=24;exitX=0.615;exitY=-0.004;exitDx=0;exitDy=0;exitPerimeter=0;entryX=0.167;entryY=1.005;entryDx=0;entryDy=0;entryPerimeter=0;rounded=0;" parent="GP_2m2FubImY15Z5l0kA-101" edge="1">
          <mxGeometry width="50" height="50" relative="1" as="geometry">
            <mxPoint x="26" y="45" as="sourcePoint" />
            <mxPoint x="26" as="targetPoint" />
          </mxGeometry>
        </mxCell>
        <mxCell id="GP_2m2FubImY15Z5l0kA-105" value="" style="group" parent="1" vertex="1" connectable="0">
          <mxGeometry x="690" y="-691.5" width="26" height="45" as="geometry" />
        </mxCell>
        <mxCell id="GP_2m2FubImY15Z5l0kA-106" value="" style="endArrow=classic;startArrow=classic;html=1;strokeWidth=2;fontFamily=Times New Roman;fontSize=24;entryX=0.181;entryY=1.006;entryDx=0;entryDy=0;entryPerimeter=0;rounded=0;" parent="GP_2m2FubImY15Z5l0kA-105" edge="1">
          <mxGeometry width="50" height="50" relative="1" as="geometry">
            <mxPoint y="45" as="sourcePoint" />
            <mxPoint as="targetPoint" />
          </mxGeometry>
        </mxCell>
        <mxCell id="GP_2m2FubImY15Z5l0kA-107" value="" style="endArrow=classic;startArrow=classic;html=1;strokeWidth=2;fontFamily=Times New Roman;fontSize=24;exitX=0.597;exitY=-0.004;exitDx=0;exitDy=0;exitPerimeter=0;entryX=0.174;entryY=1.004;entryDx=0;entryDy=0;entryPerimeter=0;rounded=0;" parent="GP_2m2FubImY15Z5l0kA-105" edge="1">
          <mxGeometry width="50" height="50" relative="1" as="geometry">
            <mxPoint x="13" y="45" as="sourcePoint" />
            <mxPoint x="13" as="targetPoint" />
          </mxGeometry>
        </mxCell>
        <mxCell id="GP_2m2FubImY15Z5l0kA-108" value="" style="endArrow=classic;startArrow=classic;html=1;strokeWidth=2;fontFamily=Times New Roman;fontSize=24;exitX=0.615;exitY=-0.004;exitDx=0;exitDy=0;exitPerimeter=0;entryX=0.167;entryY=1.005;entryDx=0;entryDy=0;entryPerimeter=0;rounded=0;" parent="GP_2m2FubImY15Z5l0kA-105" edge="1">
          <mxGeometry width="50" height="50" relative="1" as="geometry">
            <mxPoint x="26" y="45" as="sourcePoint" />
            <mxPoint x="26" as="targetPoint" />
          </mxGeometry>
        </mxCell>
        <mxCell id="GP_2m2FubImY15Z5l0kA-110" value="" style="rounded=0;whiteSpace=wrap;html=1;strokeWidth=2;fontFamily=Times New Roman;fontSize=24;" parent="1" vertex="1">
          <mxGeometry x="180" y="-979.5" width="290" height="190" as="geometry" />
        </mxCell>
        <mxCell id="GP_2m2FubImY15Z5l0kA-114" value="" style="endArrow=none;html=1;rounded=0;exitX=0;exitY=0.5;exitDx=0;exitDy=0;entryX=1;entryY=0.5;entryDx=0;entryDy=0;strokeWidth=2;dashed=1;" parent="1" source="GP_2m2FubImY15Z5l0kA-110" target="GP_2m2FubImY15Z5l0kA-110" edge="1">
          <mxGeometry width="50" height="50" relative="1" as="geometry">
            <mxPoint x="250" y="-797.5" as="sourcePoint" />
            <mxPoint x="300" y="-847.5" as="targetPoint" />
          </mxGeometry>
        </mxCell>
        <mxCell id="GP_2m2FubImY15Z5l0kA-116" value="" style="group" parent="1" vertex="1" connectable="0">
          <mxGeometry x="200" y="-867.5" width="60" height="60" as="geometry" />
        </mxCell>
        <mxCell id="GP_2m2FubImY15Z5l0kA-112" value="" style="ellipse;whiteSpace=wrap;html=1;aspect=fixed;strokeWidth=2;rotation=0;container=0;" parent="GP_2m2FubImY15Z5l0kA-116" vertex="1">
          <mxGeometry width="60" height="60" as="geometry" />
        </mxCell>
        <mxCell id="GP_2m2FubImY15Z5l0kA-113" value="" style="edgeStyle=isometricEdgeStyle;endArrow=none;html=1;rounded=0;curved=1;strokeWidth=2;" parent="GP_2m2FubImY15Z5l0kA-116" edge="1">
          <mxGeometry width="50" height="100" relative="1" as="geometry">
            <mxPoint x="27.375" y="53.25" as="sourcePoint" />
            <mxPoint x="32.625" y="6.75" as="targetPoint" />
          </mxGeometry>
        </mxCell>
        <mxCell id="GP_2m2FubImY15Z5l0kA-117" value="" style="group" parent="1" vertex="1" connectable="0">
          <mxGeometry x="293" y="-867.5" width="60" height="60" as="geometry" />
        </mxCell>
        <mxCell id="GP_2m2FubImY15Z5l0kA-118" value="" style="ellipse;whiteSpace=wrap;html=1;aspect=fixed;strokeWidth=2;rotation=0;container=0;" parent="GP_2m2FubImY15Z5l0kA-117" vertex="1">
          <mxGeometry width="60" height="60" as="geometry" />
        </mxCell>
        <mxCell id="GP_2m2FubImY15Z5l0kA-119" value="" style="edgeStyle=isometricEdgeStyle;endArrow=none;html=1;rounded=0;curved=1;strokeWidth=2;" parent="GP_2m2FubImY15Z5l0kA-117" edge="1">
          <mxGeometry width="50" height="100" relative="1" as="geometry">
            <mxPoint x="27.375" y="53.25" as="sourcePoint" />
            <mxPoint x="32.625" y="6.75" as="targetPoint" />
          </mxGeometry>
        </mxCell>
        <mxCell id="GP_2m2FubImY15Z5l0kA-120" value="" style="group" parent="1" vertex="1" connectable="0">
          <mxGeometry x="390" y="-867.5" width="60" height="60" as="geometry" />
        </mxCell>
        <mxCell id="GP_2m2FubImY15Z5l0kA-121" value="" style="ellipse;whiteSpace=wrap;html=1;aspect=fixed;strokeWidth=2;rotation=0;container=0;" parent="GP_2m2FubImY15Z5l0kA-120" vertex="1">
          <mxGeometry width="60" height="60" as="geometry" />
        </mxCell>
        <mxCell id="GP_2m2FubImY15Z5l0kA-122" value="" style="edgeStyle=isometricEdgeStyle;endArrow=none;html=1;rounded=0;curved=1;strokeWidth=2;" parent="GP_2m2FubImY15Z5l0kA-120" edge="1">
          <mxGeometry width="50" height="100" relative="1" as="geometry">
            <mxPoint x="27.375" y="53.25" as="sourcePoint" />
            <mxPoint x="32.625" y="6.75" as="targetPoint" />
          </mxGeometry>
        </mxCell>
        <mxCell id="GP_2m2FubImY15Z5l0kA-152" value="" style="group" parent="1" vertex="1" connectable="0">
          <mxGeometry x="310" y="-789.5" width="26" height="45" as="geometry" />
        </mxCell>
        <mxCell id="GP_2m2FubImY15Z5l0kA-153" value="" style="endArrow=classic;startArrow=classic;html=1;strokeWidth=2;fontFamily=Times New Roman;fontSize=24;entryX=0.181;entryY=1.006;entryDx=0;entryDy=0;entryPerimeter=0;rounded=0;" parent="GP_2m2FubImY15Z5l0kA-152" edge="1">
          <mxGeometry width="50" height="50" relative="1" as="geometry">
            <mxPoint y="45" as="sourcePoint" />
            <mxPoint as="targetPoint" />
          </mxGeometry>
        </mxCell>
        <mxCell id="GP_2m2FubImY15Z5l0kA-154" value="" style="endArrow=classic;startArrow=classic;html=1;strokeWidth=2;fontFamily=Times New Roman;fontSize=24;exitX=0.597;exitY=-0.004;exitDx=0;exitDy=0;exitPerimeter=0;entryX=0.174;entryY=1.004;entryDx=0;entryDy=0;entryPerimeter=0;rounded=0;" parent="GP_2m2FubImY15Z5l0kA-152" edge="1">
          <mxGeometry width="50" height="50" relative="1" as="geometry">
            <mxPoint x="13" y="45" as="sourcePoint" />
            <mxPoint x="13" as="targetPoint" />
          </mxGeometry>
        </mxCell>
        <mxCell id="GP_2m2FubImY15Z5l0kA-155" value="" style="endArrow=classic;startArrow=classic;html=1;strokeWidth=2;fontFamily=Times New Roman;fontSize=24;exitX=0.615;exitY=-0.004;exitDx=0;exitDy=0;exitPerimeter=0;entryX=0.167;entryY=1.005;entryDx=0;entryDy=0;entryPerimeter=0;rounded=0;" parent="GP_2m2FubImY15Z5l0kA-152" edge="1">
          <mxGeometry width="50" height="50" relative="1" as="geometry">
            <mxPoint x="26" y="45" as="sourcePoint" />
            <mxPoint x="26" as="targetPoint" />
          </mxGeometry>
        </mxCell>
        <mxCell id="GP_2m2FubImY15Z5l0kA-156" value="" style="group" parent="1" vertex="1" connectable="0">
          <mxGeometry x="690" y="-789.5" width="26" height="45" as="geometry" />
        </mxCell>
        <mxCell id="GP_2m2FubImY15Z5l0kA-157" value="" style="endArrow=classic;startArrow=classic;html=1;strokeWidth=2;fontFamily=Times New Roman;fontSize=24;entryX=0.181;entryY=1.006;entryDx=0;entryDy=0;entryPerimeter=0;rounded=0;" parent="GP_2m2FubImY15Z5l0kA-156" edge="1">
          <mxGeometry width="50" height="50" relative="1" as="geometry">
            <mxPoint y="45" as="sourcePoint" />
            <mxPoint as="targetPoint" />
          </mxGeometry>
        </mxCell>
        <mxCell id="GP_2m2FubImY15Z5l0kA-158" value="" style="endArrow=classic;startArrow=classic;html=1;strokeWidth=2;fontFamily=Times New Roman;fontSize=24;exitX=0.597;exitY=-0.004;exitDx=0;exitDy=0;exitPerimeter=0;entryX=0.174;entryY=1.004;entryDx=0;entryDy=0;entryPerimeter=0;rounded=0;" parent="GP_2m2FubImY15Z5l0kA-156" edge="1">
          <mxGeometry width="50" height="50" relative="1" as="geometry">
            <mxPoint x="13" y="45" as="sourcePoint" />
            <mxPoint x="13" as="targetPoint" />
          </mxGeometry>
        </mxCell>
        <mxCell id="GP_2m2FubImY15Z5l0kA-159" value="" style="endArrow=classic;startArrow=classic;html=1;strokeWidth=2;fontFamily=Times New Roman;fontSize=24;exitX=0.615;exitY=-0.004;exitDx=0;exitDy=0;exitPerimeter=0;entryX=0.167;entryY=1.005;entryDx=0;entryDy=0;entryPerimeter=0;rounded=0;" parent="GP_2m2FubImY15Z5l0kA-156" edge="1">
          <mxGeometry width="50" height="50" relative="1" as="geometry">
            <mxPoint x="26" y="45" as="sourcePoint" />
            <mxPoint x="26" as="targetPoint" />
          </mxGeometry>
        </mxCell>
        <mxCell id="GP_2m2FubImY15Z5l0kA-160" value="" style="group" parent="1" vertex="1" connectable="0">
          <mxGeometry x="1111" y="-469" width="60" height="60" as="geometry" />
        </mxCell>
        <mxCell id="GP_2m2FubImY15Z5l0kA-161" value="" style="ellipse;whiteSpace=wrap;html=1;aspect=fixed;strokeWidth=2;rotation=0;container=0;" parent="GP_2m2FubImY15Z5l0kA-160" vertex="1">
          <mxGeometry width="60" height="60" as="geometry" />
        </mxCell>
        <mxCell id="GP_2m2FubImY15Z5l0kA-162" value="" style="edgeStyle=isometricEdgeStyle;endArrow=none;html=1;rounded=0;curved=1;strokeWidth=2;" parent="GP_2m2FubImY15Z5l0kA-160" edge="1">
          <mxGeometry width="50" height="100" relative="1" as="geometry">
            <mxPoint x="27.375" y="53.25" as="sourcePoint" />
            <mxPoint x="32.625" y="6.75" as="targetPoint" />
          </mxGeometry>
        </mxCell>
        <mxCell id="GP_2m2FubImY15Z5l0kA-164" value="&lt;font style=&quot;font-size: 24px;&quot; face=&quot;Times New Roman&quot;&gt;CPU&lt;/font&gt;" style="text;html=1;align=center;verticalAlign=middle;resizable=0;points=[];autosize=1;strokeColor=none;fillColor=none;" parent="1" vertex="1">
          <mxGeometry x="954" y="-907.5" width="70" height="40" as="geometry" />
        </mxCell>
        <mxCell id="GP_2m2FubImY15Z5l0kA-165" value="&lt;font style=&quot;font-size: 24px;&quot; face=&quot;Times New Roman&quot;&gt;TAIC&lt;/font&gt;" style="text;html=1;align=center;verticalAlign=middle;resizable=0;points=[];autosize=1;strokeColor=none;fillColor=none;" parent="1" vertex="1">
          <mxGeometry x="944" y="-566.5" width="80" height="40" as="geometry" />
        </mxCell>
        <mxCell id="GP_2m2FubImY15Z5l0kA-167" value="&lt;font face=&quot;宋体&quot; style=&quot;font-size: 24px;&quot;&gt;外部设备&lt;/font&gt;" style="text;html=1;align=center;verticalAlign=middle;resizable=0;points=[];autosize=1;strokeColor=none;fillColor=none;" parent="1" vertex="1">
          <mxGeometry x="910" y="-294.5" width="120" height="40" as="geometry" />
        </mxCell>
        <mxCell id="mDuoX1Sw4fGfqt7fVJSs-59" value="" style="rounded=0;whiteSpace=wrap;html=1;strokeWidth=2;fontFamily=宋体;fontSize=24;container=0;" parent="1" vertex="1">
          <mxGeometry x="130.24" y="-305.5" width="769.76" height="64" as="geometry" />
        </mxCell>
        <mxCell id="mDuoX1Sw4fGfqt7fVJSs-66" value="网卡" style="rounded=0;whiteSpace=wrap;html=1;strokeWidth=2;fontFamily=宋体;fontSize=24;container=0;" parent="1" vertex="1">
          <mxGeometry x="141.43548387096774" y="-289.5" width="149.2258064516129" height="30" as="geometry" />
        </mxCell>
        <mxCell id="mDuoX1Sw4fGfqt7fVJSs-75" value="存储器" style="rounded=0;whiteSpace=wrap;html=1;strokeWidth=2;fontFamily=宋体;fontSize=24;container=0;" parent="1" vertex="1">
          <mxGeometry x="340.40322580645164" y="-289.5" width="149.2258064516129" height="30" as="geometry" />
        </mxCell>
        <mxCell id="mDuoX1Sw4fGfqt7fVJSs-76" value="其他设备" style="rounded=0;whiteSpace=wrap;html=1;strokeWidth=2;fontFamily=宋体;fontSize=24;container=0;" parent="1" vertex="1">
          <mxGeometry x="738.3387096774193" y="-289.5" width="149.2258064516129" height="30" as="geometry" />
        </mxCell>
        <mxCell id="mDuoX1Sw4fGfqt7fVJSs-139" value="定时器" style="rounded=0;whiteSpace=wrap;html=1;strokeWidth=2;fontFamily=宋体;fontSize=24;container=0;" parent="1" vertex="1">
          <mxGeometry x="539.3709677419356" y="-289.5" width="149.2258064516129" height="30" as="geometry" />
        </mxCell>
        <mxCell id="GP_2m2FubImY15Z5l0kA-169" value="" style="shape=curlyBracket;whiteSpace=wrap;html=1;rounded=1;flipH=1;labelPosition=right;verticalLabelPosition=middle;align=left;verticalAlign=middle;strokeWidth=2;" parent="1" vertex="1">
          <mxGeometry x="933" y="-761.5" width="20" height="430" as="geometry" />
        </mxCell>
        <mxCell id="GP_2m2FubImY15Z5l0kA-170" value="" style="shape=curlyBracket;whiteSpace=wrap;html=1;rounded=1;flipH=1;labelPosition=right;verticalLabelPosition=middle;align=left;verticalAlign=middle;strokeWidth=2;" parent="1" vertex="1">
          <mxGeometry x="933" y="-980" width="20" height="188.5" as="geometry" />
        </mxCell>
        <mxCell id="GP_2m2FubImY15Z5l0kA-172" value="&lt;font face=&quot;宋体&quot; style=&quot;font-size: 24px;&quot;&gt;用户态&lt;/font&gt;" style="text;html=1;align=center;verticalAlign=middle;resizable=0;points=[];autosize=1;strokeColor=none;fillColor=none;" parent="1" vertex="1">
          <mxGeometry x="841" y="-951.5" width="100" height="40" as="geometry" />
        </mxCell>
        <mxCell id="GP_2m2FubImY15Z5l0kA-173" value="&lt;font face=&quot;宋体&quot; style=&quot;font-size: 24px;&quot;&gt;任务/执行流&lt;/font&gt;" style="text;html=1;align=center;verticalAlign=middle;resizable=0;points=[];autosize=1;" parent="1" vertex="1">
          <mxGeometry x="1190" y="-459" width="160" height="40" as="geometry" />
        </mxCell>
        <mxCell id="GP_2m2FubImY15Z5l0kA-174" value="" style="endArrow=classic;startArrow=classic;html=1;strokeWidth=2;fontFamily=Times New Roman;fontSize=24;rounded=0;" parent="1" edge="1">
          <mxGeometry width="50" height="50" relative="1" as="geometry">
            <mxPoint x="1170" y="-369" as="sourcePoint" />
            <mxPoint x="1110" y="-369" as="targetPoint" />
          </mxGeometry>
        </mxCell>
        <mxCell id="GP_2m2FubImY15Z5l0kA-175" value="" style="group" parent="1" vertex="1" connectable="0">
          <mxGeometry x="200" y="-961.5" width="60" height="60" as="geometry" />
        </mxCell>
        <mxCell id="GP_2m2FubImY15Z5l0kA-176" value="" style="ellipse;whiteSpace=wrap;html=1;aspect=fixed;strokeWidth=2;rotation=0;container=0;" parent="GP_2m2FubImY15Z5l0kA-175" vertex="1">
          <mxGeometry width="60" height="60" as="geometry" />
        </mxCell>
        <mxCell id="GP_2m2FubImY15Z5l0kA-177" value="" style="edgeStyle=isometricEdgeStyle;endArrow=none;html=1;rounded=0;curved=1;strokeWidth=2;" parent="GP_2m2FubImY15Z5l0kA-175" edge="1">
          <mxGeometry width="50" height="100" relative="1" as="geometry">
            <mxPoint x="27.375" y="53.25" as="sourcePoint" />
            <mxPoint x="32.625" y="6.75" as="targetPoint" />
          </mxGeometry>
        </mxCell>
        <mxCell id="GP_2m2FubImY15Z5l0kA-178" value="" style="group" parent="1" vertex="1" connectable="0">
          <mxGeometry x="293" y="-961.5" width="60" height="60" as="geometry" />
        </mxCell>
        <mxCell id="GP_2m2FubImY15Z5l0kA-179" value="" style="ellipse;whiteSpace=wrap;html=1;aspect=fixed;strokeWidth=2;rotation=0;container=0;" parent="GP_2m2FubImY15Z5l0kA-178" vertex="1">
          <mxGeometry width="60" height="60" as="geometry" />
        </mxCell>
        <mxCell id="GP_2m2FubImY15Z5l0kA-180" value="" style="edgeStyle=isometricEdgeStyle;endArrow=none;html=1;rounded=0;curved=1;strokeWidth=2;" parent="GP_2m2FubImY15Z5l0kA-178" edge="1">
          <mxGeometry width="50" height="100" relative="1" as="geometry">
            <mxPoint x="27.375" y="53.25" as="sourcePoint" />
            <mxPoint x="32.625" y="6.75" as="targetPoint" />
          </mxGeometry>
        </mxCell>
        <mxCell id="GP_2m2FubImY15Z5l0kA-181" value="" style="group" parent="1" vertex="1" connectable="0">
          <mxGeometry x="390" y="-961.5" width="60" height="60" as="geometry" />
        </mxCell>
        <mxCell id="GP_2m2FubImY15Z5l0kA-182" value="" style="ellipse;whiteSpace=wrap;html=1;aspect=fixed;strokeWidth=2;rotation=0;container=0;" parent="GP_2m2FubImY15Z5l0kA-181" vertex="1">
          <mxGeometry width="60" height="60" as="geometry" />
        </mxCell>
        <mxCell id="GP_2m2FubImY15Z5l0kA-183" value="" style="edgeStyle=isometricEdgeStyle;endArrow=none;html=1;rounded=0;curved=1;strokeWidth=2;" parent="GP_2m2FubImY15Z5l0kA-181" edge="1">
          <mxGeometry width="50" height="100" relative="1" as="geometry">
            <mxPoint x="27.375" y="53.25" as="sourcePoint" />
            <mxPoint x="32.625" y="6.75" as="targetPoint" />
          </mxGeometry>
        </mxCell>
        <mxCell id="GP_2m2FubImY15Z5l0kA-184" value="" style="rounded=0;whiteSpace=wrap;html=1;strokeWidth=2;fontFamily=Times New Roman;fontSize=24;" parent="1" vertex="1">
          <mxGeometry x="560" y="-979.5" width="290" height="190" as="geometry" />
        </mxCell>
        <mxCell id="GP_2m2FubImY15Z5l0kA-185" value="" style="endArrow=none;html=1;rounded=0;exitX=0;exitY=0.5;exitDx=0;exitDy=0;entryX=1;entryY=0.5;entryDx=0;entryDy=0;strokeWidth=2;dashed=1;" parent="1" source="GP_2m2FubImY15Z5l0kA-184" target="GP_2m2FubImY15Z5l0kA-184" edge="1">
          <mxGeometry width="50" height="50" relative="1" as="geometry">
            <mxPoint x="630" y="-797.5" as="sourcePoint" />
            <mxPoint x="680" y="-847.5" as="targetPoint" />
          </mxGeometry>
        </mxCell>
        <mxCell id="GP_2m2FubImY15Z5l0kA-186" value="" style="group" parent="1" vertex="1" connectable="0">
          <mxGeometry x="580" y="-867.5" width="60" height="60" as="geometry" />
        </mxCell>
        <mxCell id="GP_2m2FubImY15Z5l0kA-187" value="" style="ellipse;whiteSpace=wrap;html=1;aspect=fixed;strokeWidth=2;rotation=0;container=0;" parent="GP_2m2FubImY15Z5l0kA-186" vertex="1">
          <mxGeometry width="60" height="60" as="geometry" />
        </mxCell>
        <mxCell id="GP_2m2FubImY15Z5l0kA-188" value="" style="edgeStyle=isometricEdgeStyle;endArrow=none;html=1;rounded=0;curved=1;strokeWidth=2;" parent="GP_2m2FubImY15Z5l0kA-186" edge="1">
          <mxGeometry width="50" height="100" relative="1" as="geometry">
            <mxPoint x="27.375" y="53.25" as="sourcePoint" />
            <mxPoint x="32.625" y="6.75" as="targetPoint" />
          </mxGeometry>
        </mxCell>
        <mxCell id="GP_2m2FubImY15Z5l0kA-189" value="" style="group" parent="1" vertex="1" connectable="0">
          <mxGeometry x="673" y="-867.5" width="60" height="60" as="geometry" />
        </mxCell>
        <mxCell id="GP_2m2FubImY15Z5l0kA-190" value="" style="ellipse;whiteSpace=wrap;html=1;aspect=fixed;strokeWidth=2;rotation=0;container=0;" parent="GP_2m2FubImY15Z5l0kA-189" vertex="1">
          <mxGeometry width="60" height="60" as="geometry" />
        </mxCell>
        <mxCell id="GP_2m2FubImY15Z5l0kA-191" value="" style="edgeStyle=isometricEdgeStyle;endArrow=none;html=1;rounded=0;curved=1;strokeWidth=2;" parent="GP_2m2FubImY15Z5l0kA-189" edge="1">
          <mxGeometry width="50" height="100" relative="1" as="geometry">
            <mxPoint x="27.375" y="53.25" as="sourcePoint" />
            <mxPoint x="32.625" y="6.75" as="targetPoint" />
          </mxGeometry>
        </mxCell>
        <mxCell id="GP_2m2FubImY15Z5l0kA-192" value="" style="group" parent="1" vertex="1" connectable="0">
          <mxGeometry x="770" y="-867.5" width="60" height="60" as="geometry" />
        </mxCell>
        <mxCell id="GP_2m2FubImY15Z5l0kA-193" value="" style="ellipse;whiteSpace=wrap;html=1;aspect=fixed;strokeWidth=2;rotation=0;container=0;" parent="GP_2m2FubImY15Z5l0kA-192" vertex="1">
          <mxGeometry width="60" height="60" as="geometry" />
        </mxCell>
        <mxCell id="GP_2m2FubImY15Z5l0kA-194" value="" style="edgeStyle=isometricEdgeStyle;endArrow=none;html=1;rounded=0;curved=1;strokeWidth=2;" parent="GP_2m2FubImY15Z5l0kA-192" edge="1">
          <mxGeometry width="50" height="100" relative="1" as="geometry">
            <mxPoint x="27.375" y="53.25" as="sourcePoint" />
            <mxPoint x="32.625" y="6.75" as="targetPoint" />
          </mxGeometry>
        </mxCell>
        <mxCell id="GP_2m2FubImY15Z5l0kA-195" value="" style="group" parent="1" vertex="1" connectable="0">
          <mxGeometry x="580" y="-961.5" width="60" height="60" as="geometry" />
        </mxCell>
        <mxCell id="GP_2m2FubImY15Z5l0kA-196" value="" style="ellipse;whiteSpace=wrap;html=1;aspect=fixed;strokeWidth=2;rotation=0;container=0;" parent="GP_2m2FubImY15Z5l0kA-195" vertex="1">
          <mxGeometry width="60" height="60" as="geometry" />
        </mxCell>
        <mxCell id="GP_2m2FubImY15Z5l0kA-197" value="" style="edgeStyle=isometricEdgeStyle;endArrow=none;html=1;rounded=0;curved=1;strokeWidth=2;" parent="GP_2m2FubImY15Z5l0kA-195" edge="1">
          <mxGeometry width="50" height="100" relative="1" as="geometry">
            <mxPoint x="27.375" y="53.25" as="sourcePoint" />
            <mxPoint x="32.625" y="6.75" as="targetPoint" />
          </mxGeometry>
        </mxCell>
        <mxCell id="GP_2m2FubImY15Z5l0kA-198" value="" style="group" parent="1" vertex="1" connectable="0">
          <mxGeometry x="673" y="-961.5" width="60" height="60" as="geometry" />
        </mxCell>
        <mxCell id="GP_2m2FubImY15Z5l0kA-199" value="" style="ellipse;whiteSpace=wrap;html=1;aspect=fixed;strokeWidth=2;rotation=0;container=0;" parent="GP_2m2FubImY15Z5l0kA-198" vertex="1">
          <mxGeometry width="60" height="60" as="geometry" />
        </mxCell>
        <mxCell id="GP_2m2FubImY15Z5l0kA-200" value="" style="edgeStyle=isometricEdgeStyle;endArrow=none;html=1;rounded=0;curved=1;strokeWidth=2;" parent="GP_2m2FubImY15Z5l0kA-198" edge="1">
          <mxGeometry width="50" height="100" relative="1" as="geometry">
            <mxPoint x="27.375" y="53.25" as="sourcePoint" />
            <mxPoint x="32.625" y="6.75" as="targetPoint" />
          </mxGeometry>
        </mxCell>
        <mxCell id="GP_2m2FubImY15Z5l0kA-201" value="" style="group" parent="1" vertex="1" connectable="0">
          <mxGeometry x="770" y="-961.5" width="60" height="60" as="geometry" />
        </mxCell>
        <mxCell id="GP_2m2FubImY15Z5l0kA-202" value="" style="ellipse;whiteSpace=wrap;html=1;aspect=fixed;strokeWidth=2;rotation=0;container=0;" parent="GP_2m2FubImY15Z5l0kA-201" vertex="1">
          <mxGeometry width="60" height="60" as="geometry" />
        </mxCell>
        <mxCell id="GP_2m2FubImY15Z5l0kA-203" value="" style="edgeStyle=isometricEdgeStyle;endArrow=none;html=1;rounded=0;curved=1;strokeWidth=2;" parent="GP_2m2FubImY15Z5l0kA-201" edge="1">
          <mxGeometry width="50" height="100" relative="1" as="geometry">
            <mxPoint x="27.375" y="53.25" as="sourcePoint" />
            <mxPoint x="32.625" y="6.75" as="targetPoint" />
          </mxGeometry>
        </mxCell>
        <mxCell id="GP_2m2FubImY15Z5l0kA-204" value="&lt;font face=&quot;宋体&quot; style=&quot;font-size: 24px;&quot;&gt;内核态&lt;/font&gt;" style="text;html=1;align=center;verticalAlign=middle;resizable=0;points=[];autosize=1;strokeColor=none;fillColor=none;" parent="1" vertex="1">
          <mxGeometry x="841" y="-857.5" width="100" height="40" as="geometry" />
        </mxCell>
        <mxCell id="GP_2m2FubImY15Z5l0kA-205" value="&lt;font face=&quot;宋体&quot; style=&quot;font-size: 24px;&quot;&gt;数据传输&lt;/font&gt;" style="text;html=1;align=center;verticalAlign=middle;resizable=0;points=[];autosize=1;" parent="1" vertex="1">
          <mxGeometry x="1210" y="-392" width="120" height="40" as="geometry" />
        </mxCell>
        <mxCell id="GP_2m2FubImY15Z5l0kA-206" value="" style="endArrow=open;html=1;rounded=0;strokeWidth=2;endFill=0;startArrow=open;startFill=0;strokeColor=#666666;" parent="1" edge="1">
          <mxGeometry width="50" height="50" relative="1" as="geometry">
            <mxPoint x="1111" y="-316.70000000000005" as="sourcePoint" />
            <mxPoint x="1171" y="-316.70000000000005" as="targetPoint" />
          </mxGeometry>
        </mxCell>
        <mxCell id="GP_2m2FubImY15Z5l0kA-207" value="&lt;font face=&quot;宋体&quot; style=&quot;font-size: 24px;&quot;&gt;控制信号&lt;/font&gt;" style="text;html=1;align=center;verticalAlign=middle;resizable=0;points=[];autosize=1;" parent="1" vertex="1">
          <mxGeometry x="1210" y="-339" width="120" height="40" as="geometry" />
        </mxCell>
        <mxCell id="GP_2m2FubImY15Z5l0kA-210" value="" style="endArrow=none;html=1;rounded=0;strokeWidth=2;edgeStyle=orthogonalEdgeStyle;endFill=0;entryX=0.839;entryY=1.003;entryDx=0;entryDy=0;startArrow=none;startFill=0;strokeColor=#666666;entryPerimeter=0;exitX=0.5;exitY=-0.017;exitDx=0;exitDy=0;exitPerimeter=0;" parent="1" source="GP_2m2FubImY15Z5l0kA-82" target="6" edge="1">
          <mxGeometry width="50" height="50" relative="1" as="geometry">
            <mxPoint x="703" y="-410" as="sourcePoint" />
            <mxPoint x="887.5600000000002" y="-720" as="targetPoint" />
            <Array as="points">
              <mxPoint x="702" y="-440" />
              <mxPoint x="890" y="-440" />
              <mxPoint x="890" y="-670" />
              <mxPoint x="759" y="-670" />
            </Array>
          </mxGeometry>
        </mxCell>
        <mxCell id="O1nhC53ZxYLluGUJJnTU-14" value="" style="endArrow=classic;startArrow=classic;html=1;rounded=0;dashed=1;startWidth=14.620689655172415;endWidth=14.620689655172415;entryX=0;entryY=0.5;entryDx=0;entryDy=0;exitX=1;exitY=0.5;exitDx=0;exitDy=0;shape=link;strokeWidth=2;" parent="1" source="GP_2m2FubImY15Z5l0kA-182" target="GP_2m2FubImY15Z5l0kA-196" edge="1">
          <mxGeometry width="100" height="100" relative="1" as="geometry">
            <mxPoint x="500" y="-930" as="sourcePoint" />
            <mxPoint x="550" y="-930" as="targetPoint" />
          </mxGeometry>
        </mxCell>
        <mxCell id="O1nhC53ZxYLluGUJJnTU-15" value="" style="endArrow=classic;startArrow=classic;html=1;rounded=0;dashed=1;startWidth=14.620689655172415;endWidth=14.620689655172415;entryX=0;entryY=0.5;entryDx=0;entryDy=0;shape=link;exitX=1;exitY=0.5;exitDx=0;exitDy=0;strokeWidth=2;" parent="1" source="GP_2m2FubImY15Z5l0kA-182" target="GP_2m2FubImY15Z5l0kA-187" edge="1">
          <mxGeometry width="100" height="100" relative="1" as="geometry">
            <mxPoint x="490" y="-870" as="sourcePoint" />
            <mxPoint x="590" y="-921" as="targetPoint" />
          </mxGeometry>
        </mxCell>
        <mxCell id="O1nhC53ZxYLluGUJJnTU-16" value="" style="endArrow=classic;startArrow=classic;html=1;rounded=0;dashed=1;startWidth=14.620689655172415;endWidth=14.620689655172415;exitX=1;exitY=0.5;exitDx=0;exitDy=0;shape=link;strokeWidth=2;" parent="1" edge="1">
          <mxGeometry width="100" height="100" relative="1" as="geometry">
            <mxPoint x="1111" y="-267.5" as="sourcePoint" />
            <mxPoint x="1170" y="-267.5" as="targetPoint" />
          </mxGeometry>
        </mxCell>
        <mxCell id="O1nhC53ZxYLluGUJJnTU-17" value="&lt;font face=&quot;宋体&quot;&gt;&lt;span style=&quot;font-size: 24px;&quot;&gt;通信通道&lt;/span&gt;&lt;/font&gt;" style="text;html=1;align=center;verticalAlign=middle;resizable=0;points=[];autosize=1;" parent="1" vertex="1">
          <mxGeometry x="1210" y="-288" width="120" height="40" as="geometry" />
        </mxCell>
      </root>
    </mxGraphModel>
  </diagram>
</mxfile>
